<?xml version="1.0" encoding="UTF-8"?>
<svg width="60px" height="61px" viewBox="0 0 60 61" version="1.1" xmlns="http://www.w3.org/2000/svg" xmlns:xlink="http://www.w3.org/1999/xlink">
    <!-- Generator: Sketch 53.2 (72643) - https://sketchapp.com -->
    <title>logo@2x</title>
    <desc>Created with Sketch.</desc>
    <g id="Design" stroke="none" stroke-width="1" fill="none" fill-rule="evenodd">
        <g id="AMR-desktop-gallery" transform="translate(-60.000000, -60.000000)" fill="#FFFFFF">
            <g id="Header" transform="translate(60.000000, 60.000000)">
                <g id="logo">
                    <path d="M5.2595102,21.4251372 C4.79542857,22.7077858 3.38930612,23.3680696 2.11869388,22.8994412 C0.848489796,22.4304007 0.195020408,21.010502 0.659102041,19.7278534 C1.12318367,18.4452047 2.52930612,17.7849209 3.7995102,18.2539615 C5.07012245,18.7221777 5.72359184,20.1424885 5.2595102,21.4251372" id="Fill-1"></path>
                    <path d="M19.5701633,58.7383014 C7.23995918,54.1888554 -0.782897959,41.7774162 0.0607755102,28.5556662 C0.104040816,27.8735378 0.686489796,27.3566865 1.36118367,27.4007878 C2.03546939,27.444477 2.54771429,28.0326324 2.50444898,28.7139365 C1.73057143,40.8488149 9.09383673,52.2397405 20.4109796,56.4153554 C34.5742449,61.6411595 50.306898,54.2568622 55.4815918,39.9548351 C60.6566939,25.6523959 53.3440408,9.76560541 39.1807755,4.53980135 C27.8636327,0.364598649 14.9624082,4.27931486 7.80689796,14.059923 C7.40485714,14.608923 6.6375102,14.7247405 6.09465306,14.319173 C5.55057143,13.9136054 5.43546939,13.1391527 5.83710204,12.5897405 C13.6342449,1.93328784 27.6909796,-2.33217838 40.0211837,2.21685541 C55.4526122,7.91087568 63.4203673,25.22045 57.782,40.8030649 C52.1440408,56.3860919 35.002,64.4314973 19.5701633,58.7383014" id="Fill-3"></path>
                    <path d="M40.8592245,50.6745547 C39.6759592,51.3356628 38.1857551,50.9028926 37.5310612,49.7076223 C36.8763673,48.5127642 37.3049388,47.0079601 38.4882041,46.346852 C39.6722857,45.6857439 41.1620816,46.1185142 41.8171837,47.3137845 C42.4714694,48.5086426 42.042898,50.0134466 40.8592245,50.6745547" id="Fill-6"></path>
                    <path d="M10.866,41.0515574 C5.09212245,30.5113345 8.88640816,17.1931385 19.3247755,11.3626926 C29.7623265,5.53224662 42.9513061,9.36411824 48.7251837,19.9039291 C52.9288571,27.5775642 52.1929388,37.0049493 46.8513061,43.9218547 C46.4357959,44.4601385 45.666,44.5561723 45.1325306,44.1357669 C44.6002857,43.7157736 44.5039592,42.938848 44.9202857,42.400152 C49.6574286,36.2667669 50.3100816,27.9056453 46.5823265,21.1012601 C41.4619184,11.7542466 29.7664082,8.35638176 20.5100816,13.5265439 C11.2537551,18.6971182 7.88885714,30.507625 13.0088571,39.8546385 C16.7370204,46.6590236 24.0974286,50.5440642 31.7602857,49.7510642 C32.4333469,49.6814088 33.0337551,50.1772399 33.1031429,50.8552466 C33.1721224,51.534902 32.6827347,52.1416047 32.0104898,52.2116723 C23.3692653,53.1052399 15.0696735,48.7247804 10.866,41.0515574" id="Fill-8"></path>
                    <path d="M21.1186939,31.7239568 L20.0142041,28.2758081 L19.9709388,28.2758081 L18.8660408,31.7239568 L21.1186939,31.7239568 Z M18.924,25.6973216 C18.9521633,25.6099432 19.0097143,25.5522405 19.1101224,25.5522405 L20.9178776,25.5522405 C21.0182857,25.5522405 21.0758367,25.6099432 21.1044082,25.6973216 L24.404,35.2582473 C24.4329796,35.3452135 24.404,35.4033284 24.3035918,35.4033284 L22.4382857,35.4033284 C22.3378776,35.4033284 22.2807347,35.3600514 22.2521633,35.2582473 L21.6925714,33.5345851 L18.2782857,33.5345851 L17.7329796,35.2582473 C17.7044082,35.3600514 17.6468571,35.4033284 17.546449,35.4033284 L15.6672653,35.4033284 C15.566449,35.4033284 15.5378776,35.3452135 15.566449,35.2582473 L18.924,25.6973216 Z" id="Fill-10"></path>
                    <path d="M25.5387347,25.6972804 C25.5387347,25.609902 25.5962857,25.5521993 25.6824082,25.5521993 L27.3893469,25.5521993 C27.5040408,25.5521993 27.5758776,25.5954764 27.6191429,25.6972804 L30.086898,31.318348 L30.1436327,31.318348 L32.5685306,25.6972804 C32.6113878,25.5954764 32.6832245,25.5521993 32.7979184,25.5521993 L34.4762857,25.5521993 C34.5624082,25.5521993 34.6199592,25.609902 34.6199592,25.6972804 L34.6199592,35.2582061 C34.6199592,35.3451723 34.5624082,35.4032872 34.4762857,35.4032872 L32.8554694,35.4032872 C32.7693469,35.4032872 32.7117959,35.3451723 32.7117959,35.2582061 L32.7117959,29.7096791 L32.6546531,29.7096791 L30.846898,33.8675709 C30.7893469,33.9982264 30.7032245,34.0559291 30.5742449,34.0559291 L29.584449,34.0559291 C29.4554694,34.0559291 29.3693469,33.9982264 29.3117959,33.8675709 L27.5040408,29.7096791 L27.446898,29.7096791 L27.446898,35.2582061 C27.446898,35.3451723 27.3893469,35.4032872 27.3032245,35.4032872 L25.6824082,35.4032872 C25.5962857,35.4032872 25.5387347,35.3451723 25.5387347,35.2582061 L25.5387347,25.6972804 Z" id="Fill-12"></path>
                    <path d="M41.7229796,28.609 C41.7229796,27.8699932 41.2062449,27.3918851 40.4033878,27.3918851 L38.6817551,27.3918851 C38.6242041,27.3918851 38.5956327,27.4211486 38.5956327,27.4792635 L38.5956327,29.7531622 C38.5956327,29.811277 38.6242041,29.8401284 38.6817551,29.8401284 L40.4033878,29.8401284 C41.2062449,29.8401284 41.7229796,29.3620203 41.7229796,28.609 L41.7229796,28.609 Z M41.8809388,35.4030811 C41.751551,35.4030811 41.709102,35.3602162 41.6654286,35.2584122 L39.9870612,31.6515811 L38.6817551,31.6515811 C38.6242041,31.6515811 38.5956327,31.6800203 38.5956327,31.7381351 L38.5956327,35.2584122 C38.5956327,35.3453784 38.5380816,35.4030811 38.4519592,35.4030811 L36.6299184,35.4030811 C36.5442041,35.4030811 36.4866531,35.3453784 36.4866531,35.2584122 L36.4866531,25.6974865 C36.4866531,25.6101081 36.5442041,25.5524054 36.6299184,25.5524054 L40.5180816,25.5524054 C42.5119592,25.5524054 43.8319592,26.8127973 43.8319592,28.609 C43.8319592,29.8698041 43.1719592,30.868473 42.0960408,31.3469932 L44.0184898,35.2295608 C44.0613469,35.3161149 44.0184898,35.4030811 43.9180816,35.4030811 L41.8809388,35.4030811 Z" id="Fill-14"></path>
                </g>
            </g>
        </g>
    </g>
</svg>